<svg width="86" height="60" viewBox="0 0 86 60" fill="none" xmlns="http://www.w3.org/2000/svg">
<path d="M0 29.178C1.28851 25.2567 2.57627 21.3347 3.86328 17.412C5.38023 12.7759 6.8912 8.1376 8.3962 3.49706C9.22708 0.952109 11.2875 -0.111252 13.8451 0.691833C15.7353 1.2858 17.6098 1.93539 19.5112 2.49377C21.3029 3.01655 22.3869 4.12441 22.734 5.98196C24.6824 6.23334 26.5704 5.82178 28.4539 5.43692C31.7259 4.76954 34.989 4.44475 38.2005 5.69276C39.1322 6.05537 40.0079 6.56258 40.9329 6.94744C41.0725 7.00581 41.2225 7.03588 41.3741 7.03588C41.5256 7.03588 41.6756 7.00581 41.8153 6.94744C46.0503 4.4403 50.4264 4.33575 54.9481 6.07317C56.7936 6.78504 58.6524 7.468 60.5471 8.05974C61.1361 8.24439 61.8371 8.08866 62.5336 8.08866C62.4284 7.48579 62.3097 7.05644 62.2805 6.62042C62.1908 5.79773 62.3739 4.96841 62.8019 4.25851C63.23 3.5486 63.8797 2.99693 64.6523 2.68731C66.8919 1.79746 69.1314 0.956559 71.4068 0.202416C73.5255 -0.498337 75.5904 0.620643 76.4168 2.81633C78.2801 7.77277 80.1367 12.7322 81.9866 17.6945C83.3214 21.245 84.6652 24.7933 86.0179 28.3393V29.8387C85.5117 31.6718 84.2509 32.6773 82.4614 33.2334C80.7571 33.7629 79.1021 34.457 77.4291 35.0665C74.9656 35.9564 73.0373 35.16 71.9063 32.8019C71.8637 32.7107 71.7966 32.6284 71.5681 32.5661C71.5569 32.7795 71.5569 32.9933 71.5681 33.2067C71.7137 34.5282 71.5972 35.8073 71.006 37.022C69.922 39.2466 68.0363 40.0029 65.0464 39.3378C65.1898 41.3955 64.5829 43.1708 62.93 44.4677C61.2772 45.7647 59.3803 45.976 57.2952 45.3331C57.396 47.0416 56.9906 48.5543 55.8373 49.8068C54.6839 51.0593 53.1856 51.5976 51.4253 51.6643C51.6716 53.7666 51.0826 55.5463 49.2887 56.7565C47.4276 58.0089 45.571 57.6041 43.6898 56.4806C42.5229 58.6496 40.962 60.3292 38.2454 59.9354C35.6945 59.5662 34.1962 57.8777 33.3183 55.4706C31.8178 56.0735 30.3016 56.2203 28.7742 55.5975C27.2468 54.9746 26.2703 53.8778 25.6835 52.3584C23.4999 53.622 21.3521 53.6932 19.3343 52.2383C17.3164 50.7834 16.826 48.7434 17.2739 46.3898C16.6617 46.3601 16.0516 46.297 15.4464 46.2007C14.6355 46.0399 13.8724 45.6965 13.2159 45.1971C12.5594 44.6976 12.0269 44.0554 11.6593 43.3196C11.2916 42.5839 11.0987 41.7742 11.0952 40.9529C11.0917 40.1315 11.2777 39.3202 11.6391 38.5814C12.0669 37.6804 12.5887 36.8217 13.0433 35.9319C13.1896 35.5772 13.3138 35.2139 13.4151 34.8441C13.2041 34.9365 12.9985 35.0404 12.7992 35.1555C12.296 35.5373 11.7063 35.7909 11.0816 35.8941C10.457 35.9972 9.81638 35.9468 9.21586 35.7473C7.05467 35.0799 4.90694 34.3747 2.75694 33.6806C1.26314 33.2001 0.477038 32.0744 0.00672531 30.6707L0 29.178ZM41.0404 46.8369C40.7249 46.6551 40.4199 46.4561 40.1266 46.2407C39.6787 45.8514 39.5264 45.3509 39.831 44.8259C40.1355 44.3009 40.635 44.0673 41.2554 44.3031C41.4856 44.4006 41.7099 44.5113 41.9272 44.6346C44.6438 46.0628 47.347 47.511 50.077 48.9125C52.0636 49.9314 54.3569 48.9125 54.8675 46.8414C55.2393 45.3376 54.563 43.9138 52.9774 43.0462C50.8229 41.8694 48.6415 40.7415 46.4826 39.5914C46.0638 39.3689 45.6293 39.1665 45.2373 38.9062C44.7043 38.5547 44.5229 38.0497 44.8095 37.4624C45.1141 36.8306 45.6584 36.6972 46.2922 36.8951C46.5259 36.9877 46.7507 37.1008 46.9641 37.2333C50.5116 39.1198 54.0568 41.0092 57.5998 42.9016C58.5091 43.3888 59.4497 43.549 60.4284 43.2219C61.7363 42.777 62.5291 41.8694 62.6837 40.4946C62.8472 39.0197 62.2357 37.8896 60.9323 37.1777C57.4744 35.3001 54.0053 33.447 50.5451 31.5783C49.6023 31.0711 49.3335 30.466 49.7232 29.7986C50.1129 29.1313 50.7467 29.069 51.6224 29.5361C53.0983 30.3259 54.5674 31.1267 56.0433 31.9165C59.1675 33.5872 62.2828 35.2756 65.4249 36.9107C67.3487 37.9118 68.8403 37.1332 69.2322 34.9998C69.5704 33.1378 68.8515 31.6762 67.3577 30.6796C65.2279 29.2603 63.0375 27.9188 60.7957 26.6753C57.8417 25.0469 54.8227 23.5364 51.8105 22.0192C51.2551 21.7389 50.5743 21.4786 49.9808 21.5364C48.5972 21.6558 47.2276 21.9008 45.889 22.2683C43.6629 22.9046 41.5151 23.8256 39.2778 24.3862C36.0662 25.2048 33.1234 24.5864 30.6487 22.255C28.5009 20.2328 28.4091 19.67 30.3665 17.4654C31.9342 15.7013 33.6497 14.0551 35.3249 12.3822C36.5813 11.1319 37.8803 9.93509 39.2062 8.65594C39.0651 8.56918 38.9575 8.49354 38.8411 8.43348C36.1379 7.0342 33.2847 6.90294 30.3441 7.4324C27.8447 7.87732 25.37 8.52024 22.79 8.36674C22.5907 8.36674 22.2503 8.69376 22.1719 8.93179C20.0152 15.4877 17.8651 22.0459 15.7711 28.6218C15.4285 29.6985 15.3546 30.8464 15.1575 31.9765L15.3814 32.0633C17.1306 30.6084 19.0925 30.0367 21.2245 30.951C23.3566 31.8653 24.4742 33.5694 24.7922 35.8073C29.2915 35.7606 30.5502 36.6972 31.7551 40.9462C35.3966 40.2031 38.8702 42.5768 38.7358 46.8436L41.0404 46.8369ZM63.3958 10.1309C61.6624 10.7582 60.0701 10.4957 58.5203 9.95066C57.022 9.42343 55.5506 8.81611 54.077 8.22214C49.5553 6.40019 45.2709 6.90517 41.5465 9.96624C38.5432 12.4378 35.8356 15.2675 33.0159 17.957C32.4583 18.4909 31.988 19.1161 31.5064 19.6655C31.5337 19.7484 31.5682 19.8288 31.6095 19.9058C31.6752 19.9953 31.7455 20.0814 31.82 20.1639C33.8468 22.3885 36.3753 22.8845 39.1658 22.0815C41.3606 21.4497 43.4972 20.611 45.6606 19.8991C47.4523 19.3118 49.3067 18.838 51.1722 19.3741C52.2764 19.69 53.2908 20.3263 54.33 20.8468C57.3691 22.3751 60.4217 23.8812 63.434 25.4673C65.8057 26.7153 68.1371 28.0523 70.0138 30.01C70.2281 30.1763 70.4658 30.3105 70.7193 30.4082C70.7193 30.1346 70.7641 29.8365 70.6723 29.594C69.1382 25.4606 67.5816 21.3362 66.0341 17.2096C65.1696 14.8782 64.2984 12.5446 63.3958 10.1309V10.1309ZM2.33811 29.723C2.3202 30.7018 2.73899 31.2602 3.67065 31.5694C5.63103 32.2146 7.59516 32.8478 9.56301 33.4693C10.9068 33.8942 11.6839 33.4915 12.1251 32.1345C14.8215 23.8664 17.5135 15.596 20.201 7.3234C20.6489 5.92857 20.257 5.1633 18.8573 4.71171C17.0014 4.11106 15.1426 3.51783 13.2807 2.93202C11.7757 2.45373 11.0411 2.82968 10.5551 4.34242C7.88853 12.5334 5.22044 20.7245 2.55086 28.9155C2.46128 29.2225 2.38962 29.5473 2.33811 29.723ZM72.4371 2.3336C72.2037 2.38091 71.9734 2.44183 71.7473 2.51602C69.8055 3.22344 67.8661 3.93086 65.9243 4.65831C64.6836 5.12325 64.3096 5.91745 64.771 7.1521C67.8377 15.3624 70.9104 23.5705 73.9891 31.7763C74.4706 33.0555 75.2634 33.4003 76.5713 32.9265C78.41 32.2591 80.2398 31.5783 82.0718 30.8976C83.6395 30.3192 83.9597 29.6162 83.3841 28.079C81.6552 23.4563 79.924 18.8335 78.1905 14.2108C76.8781 10.7026 75.5568 7.19882 74.2534 3.69061C73.9555 2.88308 73.4673 2.36029 72.4371 2.3336ZM19.3589 47.8158C19.4575 49.3441 20.2996 50.4631 21.7352 50.8702C22.4136 51.0725 23.1416 51.0347 23.7951 50.7633C24.4486 50.4919 24.987 50.0037 25.3185 49.3819C26.548 47.1751 27.7395 44.946 28.9197 42.7081C29.7864 41.0618 29.2534 39.2176 27.7171 38.3923C26.1359 37.5425 24.2905 38.132 23.37 39.8094C22.1965 41.9517 21.0319 44.1007 19.8964 46.2608C19.6299 46.7457 19.5202 47.2974 19.3455 47.8158H19.3589ZM16.8775 44.0184C17.3796 43.9904 17.8655 43.8318 18.2865 43.5585C18.7075 43.2852 19.0487 42.9068 19.2761 42.4611C20.2301 40.7682 21.1573 39.0597 22.0397 37.3267C22.8415 35.7517 22.2077 34.0121 20.593 33.1534C19.8968 32.8057 19.0934 32.7349 18.3465 32.9552C17.5995 33.1755 16.9653 33.6704 16.5729 34.3391C15.5741 36.0676 14.602 37.8206 13.7353 39.6203C12.7163 41.7226 14.2505 44.025 16.8641 44.0184H16.8775ZM30.8816 53.6887C31.9342 53.6887 32.8592 53.3017 33.3832 52.4185C34.3871 50.7599 35.3065 49.0522 36.1379 47.3019C36.8098 45.8826 36.0663 44.2052 34.662 43.4867C33.2578 42.7681 31.4572 43.1641 30.6576 44.49C29.6875 46.073 28.8038 47.7068 28.0104 49.3841C27.0384 51.453 28.5882 53.6932 30.8681 53.6887H30.8816ZM39.9631 49.135C37.7862 49.135 35.1749 52.3896 35.5601 54.6231C35.5755 54.7608 35.6025 54.8969 35.6407 55.0302C36.1469 56.3872 37.0113 57.4061 38.5096 57.6485C40.0079 57.891 40.794 56.8699 41.4211 55.7265C41.8991 54.8833 42.3327 54.016 42.7201 53.1281C43.5935 51.0059 42.2878 49.1372 39.9631 49.135ZM44.7536 54.3717C46.3481 55.484 47.665 55.4595 48.5721 54.3116C49.4791 53.1637 49.3739 51.5064 48.104 50.6366C46.8342 49.7668 45.3807 49.0793 44.0101 48.3252C45.8555 50.2005 45.6472 52.2561 44.7491 54.3717H44.7536Z" fill="#EB173A"/>
</svg>
