<svg width="67" height="76" viewBox="0 0 67 76" fill="none" xmlns="http://www.w3.org/2000/svg">
<path d="M28.6687 76.0013C27.6185 75.6418 27.233 74.9022 27.2802 73.7935C27.3422 72.3375 27.2802 70.876 27.3044 69.4173C27.3125 68.9583 27.1912 68.7363 26.7342 68.566C25.2298 67.9871 23.7456 67.3552 22.2763 66.6891C21.8719 66.508 21.6481 66.5025 21.3326 66.8253C20.2623 67.9463 19.165 69.0414 18.0677 70.1364C17.1241 71.0776 16.3287 71.0898 15.3986 70.1582C13.3469 68.1043 11.3042 66.0408 9.27043 63.9678C8.36321 63.043 8.37803 62.2135 9.30143 61.2696C10.5052 60.0438 11.7279 58.8179 12.8535 57.682C12.135 55.8215 11.4556 54.0318 10.7358 52.2611C10.6697 52.0977 10.3313 51.9656 10.1184 51.9615C8.5762 51.9356 7.03404 51.9519 5.49189 51.9465C4.14386 51.9465 3.56556 51.3608 3.55343 50.0111C3.54534 49.123 3.55343 48.2404 3.55343 47.242C2.9266 47.242 2.34694 47.2543 1.76864 47.242C0.582366 47.2094 0.0161843 46.6441 0.0080961 45.4496C-0.0040362 42.8522 0.0080882 40.2548 0 37.6574C0 36.8062 0.385531 36.2586 1.13908 35.9385C1.83736 35.6403 2.52082 35.2998 3.23663 35.0573C3.77584 34.8734 3.91064 34.5629 3.9012 34.0181C3.85402 30.6402 4.16137 27.3074 5.14813 24.0575C7.06773 17.7286 10.6508 12.5865 15.8974 8.63118C18.0548 7 20.4387 5.69934 22.9719 4.77118C23.4989 4.57777 23.6944 4.30945 23.6459 3.74966C23.596 3.11087 23.6243 2.46526 23.6378 1.82239C23.6634 0.596558 24.2363 0.010882 25.459 0.0067959C28.2009 -0.00410035 30.9428 0.0067959 33.682 0.0067959C36.2271 0.0067959 38.7731 0.0067959 41.3199 0.0067959C42.7071 0.0067959 43.2867 0.585658 43.3123 1.97221C43.3272 2.78942 43.0602 3.7878 43.435 4.36257C43.8098 4.93735 44.8316 5.04359 45.5568 5.38955C54.2642 9.52831 59.8208 16.3058 62.2266 25.7219C62.9155 28.446 63.0934 31.2354 63.0206 34.0399C63.0071 34.5602 63.1554 34.8435 63.6528 35.0233C64.3888 35.2861 65.0925 35.6375 65.8097 35.9399C66.5983 36.2709 66.9892 36.8525 66.9865 37.7214C66.9865 40.2698 66.9933 42.8168 66.9865 45.3638C66.9865 46.6387 66.3988 47.2216 65.1491 47.2502C64.6099 47.2611 64.0801 47.2502 63.4277 47.2502C63.4277 48.1205 63.4277 48.9241 63.4277 49.7291C63.4277 51.4398 62.9222 51.9547 61.2547 51.956H56.4826C55.6832 53.7798 54.9095 55.5068 54.1842 57.253C54.1101 57.4341 54.2557 57.8046 54.4161 57.9721C55.4676 59.0767 56.5554 60.1514 57.6244 61.241C58.6287 62.2625 58.6341 63.0321 57.6379 64.0441C55.6338 66.0762 53.6257 68.1047 51.6135 70.1296C50.6389 71.1089 49.8692 71.1103 48.8945 70.1364C47.8161 69.0577 46.7377 67.9803 45.6822 66.8771C45.36 66.5393 45.1214 66.5012 44.6833 66.7014C43.218 67.3701 41.7271 67.9871 40.2267 68.5769C39.8223 68.7335 39.6551 68.8902 39.6646 69.3451C39.6956 70.8283 39.6767 72.313 39.6753 73.7976C39.6753 75.1719 39.4489 75.511 38.2087 76.0081L28.6687 76.0013ZM43.346 7.85346V30.2412C43.346 31.9342 42.8351 32.4517 41.1514 32.4517C36.0361 32.4517 30.9199 32.4517 25.8027 32.4517C24.1096 32.4517 23.6378 31.9641 23.6378 30.233C23.6378 23.0851 23.6378 15.9367 23.6378 8.78781V7.84801C23.3372 7.96787 23.1363 8.04006 22.9408 8.12042C18.9786 9.81779 15.5 12.4906 12.8225 15.8949C9.64924 19.9129 7.71616 24.4757 7.22143 29.6037C7.06682 31.4258 7.00651 33.2548 7.04078 35.0832C7.04887 36.2777 6.66604 37.069 5.50268 37.4572C4.81084 37.7052 4.13544 37.9977 3.48063 38.333C3.31617 38.412 3.10722 38.6258 3.10453 38.7811C3.07757 40.5299 3.08702 42.2788 3.08702 44.0617H63.909C63.909 42.9802 63.917 41.9465 63.909 40.9127C63.9009 40.1254 64.1246 39.1734 63.7674 38.5972C63.4304 38.0524 62.4922 37.8372 61.775 37.6179C60.3367 37.178 59.8703 36.2559 59.9403 34.774C60.0752 31.9791 59.9201 29.1897 59.2555 26.452C57.6756 19.9442 54.1968 14.734 48.8191 10.8213C47.1327 9.5917 45.2923 8.5937 43.346 7.85346ZM54.6426 62.5485C53.5736 61.4821 52.4857 60.4102 51.4154 59.3301C50.345 58.25 50.2925 57.7801 51.0743 56.4698C52.1768 54.6296 52.995 52.6303 53.5008 50.5409C53.8445 49.1312 54.2584 48.8288 55.7183 48.8274H60.2747V47.2856H46.1864C46.1311 47.5104 46.065 47.7215 46.0273 47.9367C44.965 54.0467 39.7091 58.5687 33.6159 58.6136C27.3867 58.6586 22.0161 54.187 20.9269 48.0116C20.8258 47.4395 20.6573 47.2325 20.0655 47.2352C15.8313 47.2611 11.5958 47.2488 7.36163 47.2516C7.12977 47.2516 6.89654 47.272 6.66737 47.2829V48.8302C8.26344 48.8302 9.82447 48.8302 11.3855 48.8302C12.6553 48.8302 13.0989 49.1543 13.417 50.3965C13.9518 52.5299 14.8002 54.5702 15.9338 56.4494C16.7318 57.7637 16.6644 58.22 15.5954 59.3001C14.5264 60.3802 13.4224 61.4794 12.3858 62.524L16.7979 66.9642C17.8763 65.8746 18.9924 64.7373 20.1181 63.6055C20.9795 62.7392 21.578 62.633 22.5958 63.2636C24.5569 64.4785 26.695 65.3743 28.9315 65.9182C30.0019 66.1797 30.3806 66.6987 30.3941 67.8251C30.4103 69.2348 30.3941 70.6445 30.3941 72.0474C30.3941 72.3061 30.4211 72.5649 30.4346 72.8142H36.5857C36.5857 71.0953 36.5776 69.42 36.5857 67.7447C36.5857 66.7627 36.9281 66.2465 37.8609 66.0122C40.2382 65.4196 42.5114 64.4618 44.6011 63.1724C45.3492 62.7093 45.9612 62.8264 46.6137 63.4134C46.8698 63.6436 47.1043 63.897 47.3456 64.1421C48.3072 65.1182 49.268 66.0957 50.2278 67.0746L54.6426 62.5485ZM40.1687 29.2632V3.18033H26.7827V29.2632H40.1687ZM24.0274 47.2924C24.518 51.5924 28.5433 55.564 33.7009 55.4646C38.3516 55.372 42.8742 51.3486 42.9187 47.2924H24.0274Z" fill="#EB173A"/>
</svg>
